<svg width="16" height="16" viewBox="0 0 16 16" fill="none" xmlns="http://www.w3.org/2000/svg">
<g clip-path="url(#clip0_313_2093)">
<path d="M7.33792 14H6.40325C4.01325 14 2.81859 14 2.07592 13.2433C1.33325 12.4867 1.33325 11.2687 1.33325 8.83332C1.33325 6.39799 1.33325 5.17999 2.07592 4.42332C2.81859 3.66666 4.01325 3.66666 6.40325 3.66666H8.93859C11.3286 3.66666 12.5239 3.66666 13.2666 4.42332C13.8379 5.00532 13.9693 5.86066 13.9999 7.33332" stroke="#11192A" stroke-linecap="round" stroke-linejoin="round"/>
<path d="M10.6665 3.66666L10.5998 3.46C10.2698 2.43333 10.1052 1.91999 9.7125 1.62666C9.31917 1.33333 8.79784 1.33333 7.75317 1.33333H7.57784C6.5345 1.33333 6.0125 1.33333 5.61984 1.62666C5.2265 1.91999 5.06184 2.43333 4.73184 3.46L4.6665 3.66666M11.4072 8.83666C11.5305 8.72333 11.5918 8.66666 11.6665 8.66666C11.7412 8.66666 11.8025 8.72333 11.9258 8.83666L12.4012 9.27466C12.4585 9.32733 12.4872 9.354 12.5225 9.36666C12.5585 9.38 12.5972 9.37866 12.6758 9.37533L13.3172 9.34999C13.4825 9.34333 13.5652 9.34066 13.6218 9.388C13.6785 9.43533 13.6898 9.51733 13.7118 9.68133L13.7998 10.3387C13.8105 10.4147 13.8152 10.452 13.8338 10.4853C13.8525 10.5173 13.8825 10.5407 13.9425 10.588L14.4598 10.9947C14.5878 11.096 14.6518 11.146 14.6645 11.218C14.6772 11.29 14.6338 11.3593 14.5485 11.498L14.1978 12.0627C14.1578 12.1273 14.1378 12.16 14.1312 12.196C14.1245 12.232 14.1325 12.27 14.1485 12.3447L14.2878 12.9967C14.3212 13.1567 14.3385 13.2367 14.3018 13.3007C14.2652 13.3647 14.1872 13.39 14.0318 13.4407L13.4145 13.6413C13.3412 13.6653 13.3038 13.6773 13.2752 13.7013C13.2465 13.726 13.2285 13.7607 13.1932 13.8293L12.8918 14.41C12.8152 14.5587 12.7765 14.6327 12.7065 14.658C12.6365 14.6833 12.5598 14.6513 12.4052 14.5873L11.8132 14.342C11.7405 14.312 11.7045 14.2967 11.6665 14.2967C11.6285 14.2967 11.5925 14.312 11.5198 14.342L10.9278 14.5873C10.7732 14.6513 10.6965 14.6833 10.6265 14.658C10.5565 14.6327 10.5178 14.558 10.4412 14.41L10.1398 13.8293C10.1038 13.7607 10.0865 13.726 10.0578 13.702C10.0292 13.678 9.99184 13.6653 9.9185 13.642L9.30117 13.4407C9.14584 13.39 9.06784 13.3647 9.03117 13.3007C8.9945 13.2367 9.01117 13.1573 9.04517 12.9967L9.18517 12.3447C9.2005 12.27 9.2085 12.2327 9.20184 12.1967C9.18817 12.1484 9.16555 12.1032 9.13517 12.0633L8.78517 11.498C8.6985 11.3593 8.65584 11.29 8.6685 11.218C8.68117 11.146 8.74517 11.096 8.87317 10.9953L9.3905 10.5887C9.4505 10.5407 9.4805 10.5173 9.49917 10.4847C9.51784 10.452 9.5225 10.4147 9.5325 10.338L9.62117 9.68133C9.64317 9.518 9.6545 9.43533 9.71117 9.388C9.76784 9.34066 9.8505 9.34333 10.0158 9.34999L10.6578 9.37533C10.7358 9.37866 10.7745 9.38 10.8105 9.36666C10.8458 9.35333 10.8745 9.32733 10.9318 9.27466L11.4072 8.83666Z" stroke="#11192A" stroke-linecap="round" stroke-linejoin="round"/>
</g>
<defs>
<clipPath id="clip0_313_2093">
<rect width="16" height="16" fill="white"/>
</clipPath>
</defs>
</svg>
