<svg width="22" height="22" viewBox="0 0 22 22" fill="none" xmlns="http://www.w3.org/2000/svg">
<path d="M4.58341 9.44167C4.58341 8.66434 4.58341 8.10792 4.62008 7.6725C4.65491 7.24259 4.72091 6.97034 4.83275 6.75125L4.01691 6.33509C3.82808 6.7045 3.74558 7.1115 3.70525 7.59825C3.66675 8.0795 3.66675 8.67992 3.66675 9.44167H4.58341ZM4.58341 10.5417V9.44167H3.66675V10.5417H4.58341ZM3.66675 10.5417V15.125H4.58341V10.5417H3.66675ZM3.66675 15.125V16.8795H4.58341V15.125H3.66675ZM3.66675 16.8795C3.66675 17.655 4.6045 18.0437 5.15358 17.4946L4.5055 16.8465C4.51339 16.8412 4.52204 16.8372 4.53116 16.8346L4.555 16.8364C4.56261 16.8408 4.56907 16.8468 4.57386 16.8542C4.57864 16.8615 4.5816 16.8699 4.5825 16.8786L3.66675 16.8795ZM5.15358 17.4946L6.931 15.7172L6.28291 15.0691L4.50458 16.8474L5.15358 17.4946ZM13.4751 14.6667H7.25458V15.5833H13.4751V14.6667ZM16.1655 14.4173C15.9464 14.5292 15.6742 14.5952 15.2442 14.6309C14.8079 14.6667 14.2524 14.6667 13.4751 14.6667V15.5833C14.2377 15.5833 14.8372 15.5833 15.3185 15.5439C15.8052 15.5045 16.2122 15.422 16.5817 15.2341L16.1655 14.4173ZM17.1665 13.4154C16.9468 13.8464 16.5964 14.1977 16.1655 14.4173L16.5817 15.2341C17.1856 14.9265 17.6765 14.4355 17.9842 13.8316L17.1665 13.4154ZM17.4167 10.725C17.4167 11.5023 17.4167 12.0588 17.3801 12.4942C17.3452 12.9241 17.2792 13.1963 17.1665 13.4154L17.9842 13.8316C18.1721 13.4622 18.2546 13.0552 18.294 12.5684C18.3334 12.0872 18.3334 11.4868 18.3334 10.725H17.4167ZM17.4167 9.44167V10.725H18.3334V9.44167H17.4167ZM17.1665 6.75125C17.2783 6.97034 17.3452 7.24259 17.381 7.6725C17.4167 8.10792 17.4167 8.66434 17.4167 9.44167H18.3334C18.3334 8.679 18.3334 8.0795 18.294 7.59825C18.2546 7.1115 18.1721 6.7045 17.9842 6.33509L17.1665 6.75125ZM16.1655 5.74934C16.5966 5.96924 16.947 6.31997 17.1665 6.75125L17.9842 6.33509C17.6765 5.73119 17.1856 5.24022 16.5817 4.93259L16.1655 5.74934ZM13.4751 5.5C14.2524 5.5 14.8079 5.5 15.2442 5.53667C15.6742 5.5715 15.9464 5.6375 16.1655 5.74934L16.5817 4.93259C16.2122 4.74375 15.8052 4.66217 15.3185 4.62184C14.8372 4.58334 14.2368 4.58334 13.4751 4.58334V5.5ZM8.52508 5.5H13.4751V4.58334H8.52508V5.5ZM5.83466 5.74934C6.05375 5.63842 6.326 5.5715 6.75591 5.53575C7.19133 5.5 7.74775 5.5 8.52508 5.5V4.58334C7.76241 4.58334 7.16291 4.58334 6.68166 4.62275C6.19491 4.66217 5.78791 4.74467 5.4185 4.93259L5.83466 5.74934ZM4.83275 6.75125C5.0525 6.31983 5.40324 5.96908 5.83466 5.74934L5.4185 4.93259C4.81474 5.23998 4.3247 5.73153 4.01691 6.33509L4.83275 6.75125ZM6.931 15.7172C7.01689 15.6315 7.13326 15.5834 7.25458 15.5833V14.6667C6.89003 14.667 6.54053 14.8121 6.28291 15.07L6.931 15.7172Z" fill="#11192A"/>
<path d="M7.79175 8.70834H14.2084M7.79175 11.4583H12.3751" stroke="#11192A" stroke-linecap="round" stroke-linejoin="round"/>
</svg>
